# xmcd CD database file
#
# Track frame offsets:
#	150
#	2464
#	26255
#	27894
#	49784
#	52886
#	80177
#	82591
#	100523
#	103679
#	128817
#	130576
#	143360
#	145083
#	170660
#	174546
#	198967
#	200487
#	229129
#	230352
#	251202
#	253137
#	273451
#	277876
#	280508
#
# Disc length: 3761 seconds
#
# Revision: 0
# Processed by: cddbd v1.5.2PL0 Copyright (c) Steve Scherf et al.
# Submitted via: cdripper 1,0,33,916
#
DISCID=450eaf19
DTITLE=ANCESTORS - Folia De Reis
DYEAR=1900
DGENRE=Jazz
TTITLE0=Interlude 1
TTITLE1=Ancestrains
TTITLE2=Interlude II
TTITLE3=Xote da Saudade
TTITLE4=Interlude III
TTITLE5=Guanabara
TTITLE6=Interlude IV
TTITLE7=Gaguinho
TTITLE8=Interlude V
TTITLE9=Folia de Reis
TTITLE10=Interlude VI
TTITLE11=Para Com Isso
TTITLE12=Interlude VII
TTITLE13=Bossa da Clea
TTITLE14=Interlude VIII
TTITLE15=Lamento dos Escravos
TTITLE16=Interlude IX
TTITLE17=Cheio de Esperanca
TTITLE18=Interlude X
TTITLE19=Sarara
TTITLE20=Interlude XI
TTITLE21=Three Expressa
TTITLE22=Prenda Minha
TTITLE23=Interlude XII
TTITLE24=Interlude XIII
EXTD=
EXTT0=
EXTT1=
EXTT2=
EXTT3=
EXTT4=
EXTT5=
EXTT6=
EXTT7=
EXTT8=
EXTT9=
EXTT10=
EXTT11=
EXTT12=
EXTT13=
EXTT14=
EXTT15=
EXTT16=
EXTT17=
EXTT18=
EXTT19=
EXTT20=
EXTT21=
EXTT22=
EXTT23=
EXTT24=
PLAYORDER=
